<svg width="129" height="152" viewBox="0 0 129 152" fill="none" xmlns="http://www.w3.org/2000/svg">
<g filter="url(#filter0_d_70_1369)">
<path d="M74.3649 122.924C75.5056 123.821 76.9119 124.564 78.3834 124.823C82.4386 125.534 85.5681 121.177 86.7566 117.235C95.2923 88.9251 102.536 39.3667 74.3704 26.6122C43.9993 12.8588 27.6578 65.6232 23.2834 93.7246C21.8202 102.095 22.5912 116.231 37.3813 105.811C37.9132 105.511 39.0971 104.2 39.6268 104.138C39.8579 104.111 39.6924 105.697 39.6839 105.852C39.431 113.284 41.9243 124.385 53.9212 109.334C54.2957 108.91 54.7042 108.075 55.1315 107.76C55.3011 107.635 55.2036 108.175 55.2397 108.383L55.3935 109.268C55.5048 109.909 55.4913 110.489 55.5458 111.127C55.6648 112.521 55.8331 113.877 56.074 115.265C56.3091 116.619 56.5923 117.904 57.4455 119.006C58.3238 120.141 59.4865 120.455 60.7614 120.956C63.3141 121.961 65.5034 120.708 67.2163 118.933C68.4721 117.632 69.6507 115.922 70.6242 114.372C71.1115 113.596 71.8799 112.597 72.6608 112.073C72.8517 111.946 72.8453 114.623 72.8361 114.93C72.7713 117.104 72.4499 121.419 74.3649 122.924Z" fill="url(#paint0_linear_70_1369)"/>
</g>
<circle cx="78.7049" cy="62.5587" r="2.9746" transform="rotate(15 78.7049 62.5587)" fill="#14063D"/>
<circle cx="54.2811" cy="56.0146" r="2.9746" transform="rotate(15 54.2811 56.0146)" fill="#14063D"/>
<path d="M70.6725 75.2913C69.6804 78.9939 65.7673 81.1625 61.9324 80.135C58.0976 79.1074 55.793 75.2728 56.7852 71.5702" stroke="#14063D" stroke-width="2.9746" stroke-linecap="round"/>
<defs>
<filter id="filter0_d_70_1369" x="-1.23438" y="0.366211" width="119.629" height="148.533" filterUnits="userSpaceOnUse" color-interpolation-filters="sRGB">
<feFlood flood-opacity="0" result="BackgroundImageFix"/>
<feColorMatrix in="SourceAlpha" type="matrix" values="0 0 0 0 0 0 0 0 0 0 0 0 0 0 0 0 0 0 127 0" result="hardAlpha"/>
<feOffset/>
<feGaussianBlur stdDeviation="12"/>
<feComposite in2="hardAlpha" operator="out"/>
<feColorMatrix type="matrix" values="0 0 0 0 0.945223 0 0 0 0 0.452986 0 0 0 0 0.102399 0 0 0 1 0"/>
<feBlend mode="normal" in2="BackgroundImageFix" result="effect1_dropShadow_70_1369"/>
<feBlend mode="normal" in="SourceGraphic" in2="effect1_dropShadow_70_1369" result="shape"/>
</filter>
<linearGradient id="paint0_linear_70_1369" x1="30.3909" y1="96.5211" x2="100.156" y2="68.0143" gradientUnits="userSpaceOnUse">
<stop stop-color="#EE6300"/>
<stop offset="1" stop-color="#E9EE00"/>
</linearGradient>
</defs>
</svg>
