<svg width="1317" height="632" viewBox="0 0 1317 632" fill="none" xmlns="http://www.w3.org/2000/svg">
<circle cx="36.5" cy="291.5" r="16" stroke="#FEAC00" stroke-width="3"/>
<rect x="2.5" y="39.5" width="27" height="24" rx="3.5" stroke="#FF2E00" stroke-width="5"/>
<rect x="33.5" y="557.5" width="38" height="17" rx="4.5" stroke="#497FF8" stroke-width="3"/>
<rect x="89.5" y="403.5" width="19" height="17" rx="4.5" stroke="#FF0F0F" stroke-width="3"/>
<line x1="53.3941" y1="189.628" x2="130.394" y2="155.628" stroke="#6FDAC0" stroke-width="3"/>
<circle cx="1302.5" cy="257.5" r="13" stroke="#FEAC00" stroke-width="3"/>
<rect x="1134" y="2" width="28" height="17" rx="4" stroke="#FB380F" stroke-width="4"/>
<line x1="1127.39" y1="444.628" x2="1204.39" y2="410.628" stroke="white" stroke-width="3"/>
<line x1="1147.39" y1="155.628" x2="1224.39" y2="121.628" stroke="#6FDAC0" stroke-width="3"/>
<line x1="1204.31" y1="478.666" x2="1241.31" y2="459.666" stroke="#FEAC00" stroke-width="3"/>
<path d="M1161.33 579.344C1162.84 579.035 1164.11 580.476 1163.63 581.936L1153.36 612.692C1152.87 614.152 1150.99 614.537 1149.97 613.385L1128.46 589.119C1127.44 587.967 1128.05 586.141 1129.56 585.833L1161.33 579.344Z" stroke="#FE3003" stroke-width="4"/>
</svg>
