<svg width="95" height="45" viewBox="0 0 95 45" fill="none" xmlns="http://www.w3.org/2000/svg">
<path d="M8.32804 0.117874L2.53373 1.06534C0.851524 1.34041 -0.232168 2.87229 0.0424656 4.48308L3.66272 25.7164C3.93738 27.3271 5.47047 28.4311 7.15268 28.1559C8.79754 27.887 9.91858 26.3491 9.64395 24.7384L8.38935 17.3799L11.193 16.9215C15.9406 16.145 19.1481 11.7447 18.3554 7.09541C17.5689 2.48269 13.0756 -0.658425 8.32804 0.117874ZM10.1944 11.064L7.39066 11.5224L6.52304 6.43375L9.32673 5.97532C10.7846 5.73692 12.137 6.6823 12.3742 8.07344C12.6239 9.53781 11.6523 10.8256 10.1944 11.064Z" fill="#49CBF4"/>
<path d="M37.8988 24.3225L29.7585 6.50156C29.4757 5.91675 29.0358 5.45506 28.4385 5.20884C27.8099 4.96261 27.0242 4.96261 26.3956 5.20884C25.8299 5.45506 25.327 5.91675 25.0756 6.50156L16.9354 24.3225C16.3697 25.5537 16.9354 27.0311 18.1926 27.5543C19.2926 28.0159 20.8327 27.7081 21.4927 26.2924L22.6241 23.8609H32.2416L33.3416 26.2924C34.0016 27.7391 35.6045 28.0776 36.6415 27.5543C37.8674 26.9387 38.4644 25.5537 37.8988 24.3225ZM24.887 18.9671L27.4328 13.3652L29.9787 18.9671H24.887Z" fill="#49CBF4"/>
<path d="M54.9935 21.8575L51.7992 16.5595C53.8712 15.4887 55.2525 13.347 55.2525 10.867C55.2525 7.3162 52.3173 4.41357 48.6626 4.41357H44.1735C42.9362 4.41357 41.9004 5.42809 41.9004 6.66803V23.0128C41.9004 24.2529 42.9362 25.2673 44.1735 25.2673C45.4686 25.2673 46.5045 24.2529 46.5045 23.0128V17.3485H46.9361L51.0224 24.1682C51.7419 25.3519 53.1517 25.521 54.159 24.9292C55.2525 24.2811 55.6265 22.9566 54.9935 21.8575ZM50.677 10.867C50.677 11.9943 49.7849 12.8397 48.6626 12.8397H46.5045V8.92249H48.6626C49.7849 8.92249 50.677 9.79609 50.677 10.867Z" fill="#49CBF4"/>
<path d="M72.4303 1.18848H60.8681C59.2057 1.18848 57.876 2.49078 57.876 4.08248C57.876 5.67421 59.2057 6.97651 60.8681 6.97651H63.7125V25.0641C63.7125 26.6559 65.0422 27.9581 66.6677 27.9581C68.2559 27.9581 69.5859 26.6559 69.5859 25.0641V6.97651H72.4303C74.0924 6.97651 75.4224 5.67421 75.4224 4.08248C75.4224 2.49078 74.0924 1.18848 72.4303 1.18848Z" fill="#49CBF4"/>
<path d="M94.4064 9.57684C93.4539 8.5021 91.8464 8.34422 90.7573 9.24616L85.4969 13.5735L83.1506 7.25015C82.6681 5.93579 81.1953 5.28539 79.853 5.758C78.5026 6.26141 77.8069 7.6955 78.321 9.01809L81.6325 17.9702L79.19 26.8968C78.8279 28.2204 79.6249 29.6172 81.0078 29.9803C82.3908 30.3432 83.8257 29.5319 84.1879 28.2083L86.6304 19.2815L94.0686 13.1503C95.1577 12.2483 95.3189 10.6741 94.4064 9.57684Z" fill="#49CBF4"/>
<path d="M22.5651 42.1785C22.5651 41.8805 22.4501 41.6384 22.2204 41.452C22.0003 41.2659 21.7179 41.0983 21.3732 40.9492C21.0381 40.7909 20.6693 40.6325 20.2672 40.4742C19.8747 40.3066 19.5059 40.1064 19.1614 39.8735C18.8262 39.6316 18.5438 39.3334 18.314 38.9797C18.0938 38.6257 17.9837 38.1742 17.9837 37.6246C17.9837 37.1498 18.0651 36.74 18.2278 36.3955C18.3906 36.0416 18.6204 35.7482 18.9172 35.5155C19.2236 35.2826 19.5826 35.1102 19.9944 34.9987C20.4061 34.8868 20.8657 34.8311 21.3732 34.8311C21.9571 34.8311 22.5077 34.8821 23.0247 34.9847C23.5417 35.0777 23.9679 35.2175 24.303 35.4037L23.6855 37.01C23.4748 36.8796 23.1587 36.7633 22.7374 36.661C22.3161 36.5492 21.8614 36.4931 21.3732 36.4931C20.9136 36.4931 20.5592 36.5817 20.3102 36.7585C20.071 36.9356 19.9512 37.1731 19.9512 37.471C19.9512 37.7504 20.0615 37.9833 20.2816 38.1694C20.5113 38.3558 20.7938 38.5279 21.1289 38.6863C21.4735 38.8446 21.8424 39.0075 22.2349 39.1751C22.6369 39.3429 23.0057 39.5478 23.3406 39.7897C23.6855 40.0226 23.9679 40.316 24.1881 40.6698C24.4177 41.0145 24.5327 41.4475 24.5327 41.9689C24.5327 42.4904 24.4417 42.942 24.2598 43.324C24.0875 43.6964 23.8385 44.0084 23.5129 44.2598C23.1971 44.5112 22.8092 44.6973 22.3498 44.8184C21.8997 44.9395 21.4018 45 20.856 45C20.1379 45 19.5059 44.935 18.9603 44.8044C18.4145 44.6741 18.0124 44.5437 17.7539 44.4134L18.3858 42.7791C18.4911 42.8349 18.6252 42.8954 18.7879 42.9607C18.9603 43.0258 19.1518 43.0863 19.3624 43.1423C19.5731 43.1981 19.7932 43.2447 20.0232 43.2819C20.2624 43.3192 20.5067 43.3377 20.7554 43.3377C21.3395 43.3377 21.7848 43.2447 22.0911 43.0585C22.4072 42.8629 22.5651 42.5695 22.5651 42.1785ZM33.484 36.7308H30.5542V44.8044H28.5866V36.7308H25.6426V35.0264H33.484V36.7308ZM38.8445 42.6393H35.7566L34.9955 44.8044H33.0279L36.647 34.9566H38.0976L41.717 44.8044H39.6488L38.8445 42.6393ZM36.2594 41.1028H38.4137L37.6668 38.9237L37.3651 37.3872H37.2933L36.9919 38.9377L36.2594 41.1028ZM49.1038 36.7308H46.174V44.8044H44.2064V36.7308H41.2622V35.0264H49.1038V36.7308ZM50.8325 35.0264H52.8001V44.8044H50.8325V35.0264ZM54.9135 39.9155C54.9135 38.2858 55.2821 37.0335 56.0192 36.1579C56.7566 35.2733 57.8097 34.8311 59.179 34.8311C59.8971 34.8311 60.5242 34.9521 61.0604 35.1941C61.5965 35.4362 62.0417 35.7809 62.3961 36.2279C62.7503 36.6747 63.0136 37.2103 63.186 37.8342C63.3583 38.4581 63.4444 39.1518 63.4444 39.9155C63.4444 41.5451 63.071 42.8024 62.3241 43.687C61.5869 44.5625 60.5386 45 59.179 45C58.4514 45 57.8194 44.879 57.2831 44.6368C56.7469 44.3949 56.3017 44.0502 55.9475 43.6032C55.6028 43.1563 55.3443 42.6208 55.172 41.9969C54.9997 41.373 54.9135 40.679 54.9135 39.9155ZM56.9815 39.9155C56.9815 40.4091 57.0247 40.8654 57.1108 41.2844C57.197 41.6942 57.3263 42.0481 57.4987 42.3461C57.6805 42.644 57.9102 42.8769 58.188 43.0445C58.4655 43.2121 58.796 43.2959 59.179 43.2959C59.8778 43.2959 60.4187 43.0305 60.8017 42.4997C61.1849 41.9689 61.3763 41.1076 61.3763 39.9155C61.3763 39.4405 61.3333 38.9982 61.2469 38.5885C61.1705 38.1787 61.046 37.8202 60.8737 37.513C60.7014 37.2056 60.4763 36.9682 60.1986 36.8006C59.921 36.6237 59.581 36.5351 59.179 36.5351C58.4799 36.5351 57.939 36.8098 57.556 37.3592C57.1731 37.8995 56.9815 38.7516 56.9815 39.9155ZM67.8523 39.7059L67.0624 38.1694H66.9906L67.2206 39.7059V44.8044H65.3535V34.9566H66.7895L70.5956 40.167L71.3567 41.6617H71.4284L71.1987 40.167V35.0264H73.0658V44.8744H71.6296L67.8523 39.7059Z" fill="white"/>
</svg>
